<?xml version="1.0" standalone="no"?>
<!DOCTYPE svg PUBLIC "-//W3C//DTD SVG 20010904//EN"
 "http://www.w3.org/TR/2001/REC-SVG-20010904/DTD/svg10.dtd">
<svg version="1.0" xmlns="http://www.w3.org/2000/svg"
 width="375.000000pt" height="375.000000pt" viewBox="0 0 375.000000 375.000000"
 preserveAspectRatio="xMidYMid meet">
<metadata>
Created by potrace 1.11, written by Peter Selinger 2001-2013
</metadata>
<g transform="translate(0.000000,375.000000) scale(0.100000,-0.100000)"
fill="#000000" stroke="none">
<path d="M885 3599 c-22 -5 -116 -11 -210 -14 -203 -6 -240 -10 -319 -36 -99
-33 -164 -84 -221 -174 -57 -88 -78 -165 -81 -290 -3 -121 9 -194 56 -343 17
-51 28 -103 25 -115 -32 -150 -37 -478 -9 -632 9 -55 33 -141 69 -250 19 -60
35 -113 35 -119 0 -6 13 -43 29 -82 31 -75 109 -305 115 -339 2 -11 7 -40 11
-65 15 -103 37 -160 72 -190 35 -31 78 -39 113 -20 15 8 23 6 37 -9 31 -32 87
-61 119 -61 19 0 45 11 67 29 25 19 52 30 88 34 29 4 57 11 63 17 5 5 13 10
17 10 7 0 8 -5 32 -120 49 -234 72 -297 133 -368 33 -39 88 -68 144 -76 28 -4
73 10 109 33 54 35 89 9 193 -144 118 -173 198 -178 331 -20 135 159 220 325
226 444 1 17 25 12 108 -23 103 -44 203 -59 328 -53 124 7 118 6 200 32 33 10
62 19 65 20 3 0 32 13 64 29 186 86 366 254 459 426 19 36 38 77 41 93 6 23
11 27 44 28 20 0 47 2 60 5 12 2 30 5 40 7 72 12 140 79 149 146 8 59 -12 95
-84 152 -136 106 -268 259 -350 404 -37 66 -74 153 -138 320 -61 161 -144 266
-265 337 -68 40 -286 116 -345 120 -32 2 -42 11 -107 98 -297 391 -437 531
-618 612 -99 44 -100 45 -180 67 -185 51 -381 83 -530 86 -80 2 -163 -1 -185
-6z m25 -2439 c0 -5 -2 -10 -4 -10 -3 0 -8 5 -11 10 -3 6 -1 10 4 10 6 0 11
-4 11 -10z"/>
</g>
</svg>
